<svg width="12" height="14" viewBox="0 0 12 14" fill="none" xmlns="http://www.w3.org/2000/svg">
<path d="M0.0374551 2.22473C0.0127084 2.15096 0 2.07597 0 2C0 0.895431 2.68629 0 6 0C9.31371 0 12 0.895431 12 2C12 2.07597 11.9873 2.15096 11.9625 2.22473L10.2785 12.3288C10.1178 13.2932 9.28342 14 8.30575 14H3.69425C2.71658 14 1.8822 13.2932 1.72147 12.3288L0.0374551 2.22473ZM9.92641 1.53447C8.96755 1.21485 7.57928 1 6 1C4.42072 1 3.03245 1.21485 2.07359 1.53447C1.59686 1.69338 1.27937 1.86078 1.09935 2C1.27937 2.13922 1.59686 2.30662 2.07359 2.46553C3.03245 2.78515 4.42072 3 6 3C7.57928 3 8.96755 2.78515 9.92641 2.46553C10.4031 2.30662 10.7206 2.13922 10.9006 2C10.7206 1.86078 10.4031 1.69338 9.92641 1.53447Z" fill="#DC3545"/>
</svg>
