<svg width="14" height="20" viewBox="0 0 14 20" fill="none" xmlns="http://www.w3.org/2000/svg">
<g clip-path="url(#clip0_7_2)">
<path d="M0.286644 18.0052C-0.10306 18.4433 -0.0944264 19.1437 0.30659 19.5706C0.707011 19.9967 1.34783 19.987 1.73754 19.5483L9.55438 10.7341L8.82871 9.96314L9.55751 10.7358C9.94796 10.2955 9.93858 9.59253 9.53578 9.16609C9.52372 9.15372 9.51211 9.142 9.50005 9.13028L1.73769 0.451501C1.34798 0.0131837 0.707011 0.00325523 0.30659 0.429203C-0.0942775 0.856127 -0.10306 1.55633 0.286644 1.99465L7.41622 9.96639L0.286644 18.0052ZM12.1169 1.02947C12.1169 0.460941 12.5385 0 13.0584 0C13.5784 0 14 0.460941 14 1.02947V18.9705C14 19.5391 13.5784 20 13.0584 20C12.5385 20 12.1169 19.5391 12.1169 18.9705V1.02947Z" fill="black"/>
</g>
<defs>
<clipPath id="clip0_7_2">
<rect width="14" height="20" fill="white"/>
</clipPath>
</defs>
</svg>
