<svg width="14" height="20" viewBox="0 0 14 20" fill="none" xmlns="http://www.w3.org/2000/svg">
<g clip-path="url(#clip0_7_5)">
<path d="M13.7133 18.0052C14.1032 18.4433 14.0945 19.1437 13.6932 19.5706C13.2929 19.9967 12.6521 19.987 12.2626 19.5483L4.44557 10.7341L5.17124 9.96314L4.44259 10.7358C4.05214 10.2955 4.06152 9.59253 4.46432 9.16609C4.47638 9.15372 4.48799 9.142 4.4999 9.13028L12.2623 0.451501C12.6521 0.0130209 13.2929 0.00309248 13.6932 0.429203C14.0944 0.856127 14.1032 1.55633 13.7133 1.99465L6.58373 9.96623L13.7133 18.0052ZM1.88317 1.02947C1.88317 0.460941 1.46161 0 0.94151 0C0.421707 0 0 0.460941 0 1.02947V18.9705C0 19.5391 0.421707 20 0.94151 20C1.46161 20 1.88317 19.5391 1.88317 18.9705V1.02947Z" fill="black"/>
</g>
<defs>
<clipPath id="clip0_7_5">
<rect width="14" height="20" fill="white"/>
</clipPath>
</defs>
</svg>
